<svg xmlns="http://www.w3.org/2000/svg" xmlns:d="http://www.mathworks.com/blockgraphics" xmlns:xlink="http://www.w3.org/1999/xlink" version="1.1" id="svg" width="386" height="400" d:options="Foreground:PortStyled;Background:Transparent;PreserveAspect:On;StrokeScaling:PortStyled;StrokeScalingOnResize:NonScaling;LineExtension:On;Rotate:On;Resize:FitToBlock;Frame:Off;PreAdjustStrokeWidth:Normalized;TextScalingOnResize:Constant;Geometric:Off;Port:Auto Majority;">
	<g id="part" title="part_0" ie-ports="left:acoustical-acoustical,top:output*output*output,right:foundation-electrical-electrical*foundation-electrical-electrical,bottom:acoustical-acoustical">
		<ellipse id="ellipse" class="ellipse" d:options="ClosedShapeFill:On;" cx="193" cy="200" rx="120" ry="120"/>
		<g id="Capacitor">
			<g id="Right">
				<rect id="rect_33" class="rect" style="fill:#000000;" transform="matrix(0,-1,1,0,5.3150024414,380.6950073242)" x="188.9" y="114.69" width="8.21" height="146" rx="0" ry="0"/>
				<line id="line_45" class="line" transform="matrix(0,-1,1,0,55.9799957275,330.0399932861)" x1="146.48" y1="137.03" x2="239.54" y2="137.03"/>
			</g>
			<g id="Left">
				<rect id="rect_34" class="rect" style="fill:#000000;" transform="matrix(0,-1,1,0,-19.3249969482,405.3350067139)" x="188.9" y="139.33" width="8.21" height="146" rx="0" ry="0"/>
				<line id="line_58" class="line" transform="matrix(0,-1,1,0,-69.9499969482,455.9699859619)" x1="239.54" y1="262.96" x2="146.48" y2="262.96"/>
			</g>
		</g>
		<rect id="rect" class="rect" d:options="ClosedShapeFill:On;" x="50" y="64" width="22" height="272" rx="0" ry="0"/>
		<line id="line" class="line" x1="259.47" y1="100" x2="386" y2="100"/>
		<line id="line_1" class="line" x1="259.47" y1="300" x2="386" y2="300"/>
	</g>
</svg>
