<svg xmlns="http://www.w3.org/2000/svg" xmlns:d="http://www.mathworks.com/blockgraphics" xmlns:xlink="http://www.w3.org/1999/xlink" version="1.1" id="svg" width="400" height="370" d:options="Foreground:PortStyled;Background:Transparent;PreserveAspect:On;StrokeScaling:PortStyled;StrokeScalingOnResize:NonScaling;LineExtension:On;Rotate:On;Resize:FitToBlock;Frame:Off;PreAdjustStrokeWidth:Normalized;TextScalingOnResize:Constant;Geometric:Off;Port:Auto Majority;">
	<g id="part" title="part_0" ie-ports="left:acoustical-acoustical*acoustical-acoustical,top:,right:acoustical-acoustical*acoustical-acoustical,bottom:acoustical-acoustical">
		<path id="ellipse" class="path" style="fill:rgb(255, 255, 255);" d:options="ClosedShapeFill:On;" d=" M 170,92.5 C 231.86,92.5 231.86,277.5 170,277.5 C 108.14,277.5 58,236.09 58,185 C 58,133.91 108.14,92.5 170,92.5 Z"/>
		<path id="path" class="path" d=" M 216.4,92.5 Q 222.4,138.75 222.4,185 Q 222.4,231.25 216.4,277.5"/>
		<ellipse id="ellipse_84" class="ellipse" d:options="ClosedShapeFill:On;" cx="296.5" cy="185" rx="7.75" ry="59.5"/>
		<line id="line" class="line" x1="208" y1="128.5" x2="219.4" y2="128.5"/>
		<line id="line_221" class="line" x1="205.28" y1="247.49" x2="219.4" y2="247.5"/>
		<path id="path_398" class="path" d=" M 216.4,92.5 Q 246.25,84.25 266.27,92.5 Q 286.3,100.75 296.5,125.5"/>
		<path id="path_450" class="path" d=" M 216.4,277.5 Q 242.68,285.75 262.7,277.5 Q 282.73,269.25 296.5,244.5"/>
		<g id="Cylinder">
			<path id="part_1" class="path" style="fill:#ffffff;" transform="matrix(0,1,-1,0,380.1650161743,176.3249740601)" d=" M 44.46,313.52 L 148.88,313.52 C 155.17,313.52 159.39,295.88 159.39,278.25 C 159.39,260.62 155.17,242.98 148.88,242.98 L 96.88,242.98"/>
			<path id="path_454" class="path" style="fill:#ffffff;" visibility="hidden" transform="matrix(0,1,-1,0,343.4199829101,139.5600166321)" d=" M 133.64,206.22 L 70.23,206.22 C 76.01,206.22 80.7,222.01 80.7,241.49 C 80.7,260.99 76,276.76 70.22,276.76 L 81.22,276.76"/>
		</g>
	</g>
</svg>
