<svg xmlns="http://www.w3.org/2000/svg" xmlns:d="http://www.mathworks.com/blockgraphics" xmlns:xlink="http://www.w3.org/1999/xlink" version="1.1" id="svg" width="387" height="400" d:options="Foreground:PortStyled;Background:Transparent;PreserveAspect:On;StrokeScaling:PortStyled;StrokeScalingOnResize:NonScaling;LineExtension:On;Rotate:On;Resize:FitToBlock;Frame:Off;PreAdjustStrokeWidth:Normalized;TextScalingOnResize:Constant;Geometric:Off;Port:Auto Majority;">
	<g id="part" title="part_0" ie-ports="left:acoustical-acoustical,top:,right:acoustical-acoustical*output*output,bottom:acoustical-acoustical"/>
	<g id="part_1_2" title="part_0" ie-ports="left:acoustical-acoustical,top:,right:output*output*acoustical-acoustical,bottom:acoustical-acoustical">
		<g id="group_429">
			<path id="ellipse" class="path" style="fill:#ffffff;" d:options="ClosedShapeFill:On;" d=" M 315.15,148.88 C 345.78,148.88 370.6,177.32 370.6,212.41 C 370.6,247.5 345.78,275.94 315.15,275.94 C 284.53,275.94 259.71,247.5 259.71,212.41 C 259.71,193.23 267.13,176.03 278.86,164.38 C 288.58,154.72 301.27,148.88 315.15,148.88 Z"/>
			<g id="group_428">
				<g id="group">
					<g id="Cylinder">
						<path id="part_1" class="path" style="fill:#ffffff;" d:options="ClosedShapeFill:On;" d=" M 148.23,244.84 L 303.87,244.84 C 304.41,244.84 307.25,232.38 307.22,218.24 C 307.18,205.89 304.33,191.65 303.87,191.65 L 148.23,191.65 C 156.04,191.65 162.37,203.56 162.37,218.25 C 162.37,232.94 156.04,244.84 148.23,244.84 Z"/>
					</g>
					<path id="path" class="path" d=" M 148.23,191.65 Q 152.1,135.26 134.92,113.98 C 110.53,81.6 67.26,94.75 55.79,100.78 C 44.51,106.71 15.3,125.12 16.43,166.07 Q 17.33,196.5 47.04,244.84"/>
					<path id="path_88" class="path" d=" M 139.58,199 Q 124.16,138.52 101.02,120.2 Q 77.88,101.87 47.04,125.7"/>
					<path id="path_852" class="path" d=" M 66.25,114.96 Q 31.95,137.9 37.14,182.18 C 38.22,191.15 48.01,214.09 60.55,224.65 C 71.5,233.84 85.03,230.52 89.92,240.48 Q 101.86,264.79 87.09,292.06"/>
					<path id="path_925" class="path" transform="matrix(0.9902680687,0.139173101,-0.139173101,0.9902680687,29.3930661401,-13.2654169245)" d=" M 100,164.67 Q 79.8,185.58 88.16,203.51 C 91.29,210.27 97.25,233.43 106.49,239.52 Q 117.13,246.56 133.39,236.35"/>
					<path id="path_977" class="path" d=" M 47.04,244.84 Q 57.39,306.97 82.67,306.97 C 93.42,306.97 101.39,308.5 116.21,292.06 Q 128.83,277.72 148.23,244.84"/>
				</g>
				<path id="path_177" class="path" d=" M 303.87,191.65 Q 300.96,204.95 300.96,218.24 Q 300.96,231.55 303.87,244.84"/>
				<line id="line" class="line" x1="325.29" y1="214.99" x2="325.29" y2="221.5"/>
				<line id="line_178" class="line" x1="325.29" y1="214.99" x2="303.87" y2="191.65"/>
				<line id="line_179" class="line" x1="325.29" y1="221.5" x2="303.87" y2="244.86"/>
				<path id="path_385" class="path" d=" M 325.29,214.99 L 329.5,214.99 Q 336.58,207.86 336.23,201.81 C 335.69,192.44 328.15,185.11 329.5,180.05 C 331.44,172.78 339.44,171.7 341.07,171.7 C 344.69,171.7 352.76,172.31 356.17,187 C 357.17,191.36 349.55,195.26 348.89,203.32 Q 348.53,207.64 355.66,214.99"/>
				<path id="path_427" class="path" d=" M 325.29,218.25 L 329.25,218.25 Q 336.53,213.09 339.66,205.11 C 342.8,197.13 341.04,187.97 342.54,187.91 C 345.45,187.75 345.27,183.91 347.89,190.83 C 348.71,193.03 344.34,201.73 345.68,205.11 C 346.66,207.61 347.09,210.58 349.02,212.69 Q 351.35,215.25 355.66,216.75"/>
			</g>
		</g>
	</g>
</svg>
