<svg xmlns="http://www.w3.org/2000/svg" xmlns:d="http://www.mathworks.com/blockgraphics" xmlns:xlink="http://www.w3.org/1999/xlink" version="1.1" id="svg" width="450" height="450" d:options="Foreground:PortStyled;Background:Transparent;StrokeScaling:PortStyled;StrokeScalingOnResize:NonScaling;LineExtension:On;Rotate:On;Resize:FitToBlock;Frame:Off;Clipping:None;PreAdjustStrokeWidth:Normalized;TextScalingOnResize:Constant;Geometric:Off;Port:Auto Majority;">
	<g id="part_1" title="part_0" ie-ports="left:acoustical-acoustical,top:,right:output*output,bottom:acoustical-acoustical">
		<g id="group_429">
			<path id="ellipse" class="path" style="fill:#ffffff;" d:options="ClosedShapeFill:On;" d=" M 354.73,160.3 C 385.36,160.3 410.18,188.74 410.18,223.83 C 410.18,258.92 385.36,287.36 354.73,287.36 C 324.11,287.36 299.29,258.92 299.29,223.83 C 299.29,204.65 306.71,187.45 318.44,175.8 C 328.16,166.14 340.85,160.3 354.73,160.3 Z"/>
			<g id="group_428">
				<g id="group">
					<g id="Cylinder">
						<path id="part_2" class="path" style="fill:#ffffff;" d:options="ClosedShapeFill:On;" d=" M 187.81,256.26 L 343.45,256.26 C 343.99,256.26 346.83,243.8 346.8,229.66 C 346.76,217.31 343.91,203.07 343.45,203.07 L 187.81,203.07 C 195.62,203.07 201.95,214.98 201.95,229.67 C 201.95,244.36 195.62,256.26 187.81,256.26 Z"/>
					</g>
					<path id="path" class="path" d=" M 187.81,203.07 Q 191.68,146.68 174.5,125.4 C 150.11,93.02 106.84,106.17 95.37,112.2 C 84.09,118.13 54.88,136.54 56.01,177.49 Q 56.91,207.92 86.62,256.26"/>
					<path id="path_88" class="path" d=" M 179.16,210.42 Q 163.74,149.94 140.6,131.62 Q 117.46,113.29 86.62,137.12"/>
					<path id="path_852" class="path" d=" M 105.83,126.38 Q 71.53,149.32 76.72,193.6 C 77.8,202.57 87.59,225.51 100.13,236.07 C 111.08,245.26 124.61,241.94 129.5,251.9 Q 141.44,276.21 126.67,303.48"/>
					<path id="path_925" class="path" transform="matrix(0.9902680687,0.139173101,-0.139173101,0.9902680687,31.3692525027,-18.6631004133)" d=" M 139.58,176.09 Q 119.38,197 127.74,214.93 C 130.87,221.69 136.83,244.85 146.07,250.94 Q 156.71,257.98 172.97,247.77"/>
					<path id="path_977" class="path" d=" M 86.62,256.26 Q 96.97,318.39 122.25,318.39 C 133,318.39 140.97,319.92 155.79,303.48 Q 168.41,289.14 187.81,256.26"/>
				</g>
				<path id="path_177" class="path" d=" M 343.45,203.07 Q 340.54,216.37 340.54,229.66 Q 340.54,242.97 343.45,256.26"/>
				<line id="line" class="line" x1="364.87" y1="226.41" x2="364.87" y2="232.92"/>
				<line id="line_178" class="line" x1="364.87" y1="226.41" x2="343.45" y2="203.07"/>
				<line id="line_179" class="line" x1="364.87" y1="232.92" x2="343.45" y2="256.28"/>
				<path id="path_385" class="path" d=" M 364.87,226.41 L 369.08,226.41 Q 376.16,219.28 375.81,213.23 C 375.27,203.86 367.73,196.53 369.08,191.47 C 371.02,184.2 379.02,183.12 380.65,183.12 C 384.27,183.12 392.34,183.73 395.75,198.42 C 396.75,202.78 389.13,206.68 388.47,214.74 Q 388.11,219.06 395.24,226.41"/>
				<path id="path_427" class="path" d=" M 364.87,229.67 L 368.83,229.67 Q 376.11,224.51 379.24,216.53 C 382.38,208.55 380.62,199.39 382.12,199.33 C 385.03,199.17 384.85,195.33 387.47,202.25 C 388.29,204.45 383.92,213.15 385.26,216.53 C 386.24,219.03 386.67,222 388.6,224.11 Q 390.93,226.67 395.24,228.17"/>
			</g>
		</g>
		<path id="path_155" class="path" d:options="Port:L0;" d=" M 0,225 L 130.81,225"/>
		<path id="path_234" class="path" d:options="Port:R0;" d=" M 410.18,222.14 L 447.33,222.14 L 447.33,112.5 L 450,112.5"/>
		<path id="path_295" class="path" d:options="Port:R1;" d=" M 410.18,228.24 L 447.33,228.24 L 447.33,337.5 L 450,337.5"/>
	</g>
</svg>
