<svg xmlns="http://www.w3.org/2000/svg" xmlns:d="http://www.mathworks.com/blockgraphics" xmlns:xlink="http://www.w3.org/1999/xlink" version="1.1" id="svg" width="700" height="700" viewBox="0 0 700 700" d:options="Foreground:PortStyled;StrokeScaling:PortStyled;StrokeScalingOnResize:NonScaling;LineExtension:On;Rotate:undefined;Resize:FitToBlock;Frame:Off;Clipping:None;PreAdjustStrokeWidth:Normalized;Port:Auto Majority;" baseProfile="tiny" fill-rule="evenodd" preserveAspectRatio="xMidYMid" stroke-linejoin="round" stroke-width="28.222" xml:space="preserve">
	<g id="part_1" title="part_0" ie-ports="left:,top:,right:acoustic-acoustic*acoustic-acoustic,bottom:">
		<rect id="rect" class="rect" x="136.39" y="80.33" width="280.56" height="291.67" rx="0" ry="0"/>
		<line id="line" class="line" x1="136.39" y1="80.33" x2="240.41" y2="2.41"/>
		<line id="line_97" class="line" x1="416.95" y1="80.33" x2="520.97" y2="2.41"/>
		<line id="line_148" class="line" x1="240.41" y1="2.41" x2="520.97" y2="2.41"/>
		<line id="line_149" class="line" x1="416.95" y1="372" x2="520.97" y2="294.08"/>
		<line id="line_184" class="line" x1="520.97" y1="2.41" x2="520.97" y2="294.08"/>
		<g id="ElectricalReference">
			<path id="path_9" class="path" d=" M 276.67,484.5 L 276.67,596.09"/>
			<path id="path_18" class="path" d=" M 207.16,596.09 L 346.18,596.09"/>
			<path id="path_28" class="path" d=" M 221.06,618.4 L 332.28,618.4"/>
			<path id="path_42" class="path" d=" M 234.96,640.73 L 318.38,640.73"/>
			<path id="path_57" class="path" d=" M 248.87,663.05 L 304.47,663.05"/>
			<path id="path_65" class="path" d=" M 262.77,685.36 L 290.57,685.36"/>
		</g>
		<line id="line_497" class="line" x1="700" y1="525" x2="276.67" y2="525"/>
		<line id="line_584" class="line" x1="700" y1="175" x2="468.96" y2="175"/>
		<line id="line_676" class="line" x1="276.67" y1="484.5" x2="276.67" y2="372"/>
	</g>
</svg>
