<svg xmlns="http://www.w3.org/2000/svg" xmlns:d="http://www.mathworks.com/blockgraphics" xmlns:xlink="http://www.w3.org/1999/xlink" version="1.1" id="svg" width="307" height="400" d:options="Foreground:PortStyled;Background:Transparent;PreserveAspect:On;StrokeScaling:PortStyled;StrokeScalingOnResize:NonScaling;LineExtension:On;Rotate:On;Resize:FitToBlock;Frame:Off;PreAdjustStrokeWidth:Normalized;TextScalingOnResize:Constant;Geometric:Off;Port:Auto Majority;">
	<g id="part" title="part_0" ie-ports="left:,top:,right:acoustic-acoustic*acoustic-acoustic,bottom:acoustic-acoustic">
		<rect id="rect" class="rect" d:options="ClosedShapeFill:On;" x="0" y="63.5" width="188.5" height="305" rx="0" ry="0"/>
		<line id="line" class="line" x1="188.5" y1="63.5" x2="307" y2="0"/>
		<line id="line_177" class="line" x1="0" y1="63.5" x2="118.5" y2="0"/>
		<line id="line_178" class="line" x1="188.5" y1="368.5" x2="307" y2="305"/>
		<line id="line_247" class="line" x1="118.5" y1="0" x2="307" y2="0"/>
		<line id="line_339" class="line" x1="307" y1="0" x2="307" y2="305"/>
		<ellipse id="ellipse" class="ellipse" d:options="ClosedShapeFill:On;" cx="247.75" cy="132" rx="26.37" ry="81"/>
		<path id="ellipse_460" class="path" style="fill:rgb(255, 255, 255);" d:options="ClosedShapeFill:On;" d=" M 247.75,243 C 253.89,243 259.12,251.29 261.18,262.96 C 261.79,266.39 262.12,270.11 262.12,274 C 262.12,291.12 255.69,305 247.75,305 C 239.8,305 233.37,291.12 233.37,274 C 233.37,256.88 239.8,243 247.75,243 Z"/>
	</g>
</svg>
