<svg xmlns="http://www.w3.org/2000/svg" xmlns:d="http://www.mathworks.com/blockgraphics" xmlns:xlink="http://www.w3.org/1999/xlink" version="1.1" id="svg" width="400" height="400" d:options="Foreground:PortStyled;Background:Transparent;PreserveAspect:On;StrokeScaling:PortStyled;StrokeScalingOnResize:NonScaling;LineExtension:On;Rotate:On;Resize:FitToBlock;Frame:Off;PreAdjustStrokeWidth:Normalized;TextScalingOnResize:Constant;Geometric:Off;Port:Auto Majority;">
	<g id="part_1_2" title="part_0" ie-ports="left:acoustical-acoustical,top:,right:acoustical-acoustical,bottom:acoustical-acoustical">
		<g id="Cylinder">
			<path id="part_1" class="path" style="fill:#ffffff;" transform="matrix(-1,0,0,-1,374.1600036621,400)" d:options="ClosedShapeFill:On;" d=" M 32,317 L 316.29,317 C 331.81,317 342.16,258.5 342.16,200 C 342.16,141.5 331.81,83 316.29,83 L 32,83 C 46.29,83 57.84,135.36 57.84,200 C 57.84,264.65 46.29,317 32,317 Z"/>
			<ellipse id="part_2" class="ellipse" transform="matrix(-1,0,0,-1,684.3200073242,400)" d:options="ClosedShapeFill:On;" cx="342.16" cy="200" rx="25.84" ry="117"/>
		</g>
		<line id="line" class="line ie-marker" data-end-params="scale:0.5x0.5;flipped:off" style="marker-end: url(#arrowHeadFilledv3_c2NhbGU6MC41eDAuNTtmbGlwcGVkOm9mZjs=);" x1="79" y1="103.83" x2="134.46" y2="103.83"/>
		<line id="line_3" class="line ie-marker" data-end-params="scale:0.5x0.5;flipped:off" style="marker-end: url(#arrowHeadFilledv3_c2NhbGU6MC41eDAuNTtmbGlwcGVkOm9mZjs=);" x1="159.35" y1="103.83" x2="214.81" y2="103.83"/>
		<line id="line_4" class="line ie-marker" data-end-params="scale:0.5x0.5;flipped:off" style="marker-end: url(#arrowHeadFilledv3_c2NhbGU6MC41eDAuNTtmbGlwcGVkOm9mZjs=);" x1="237" y1="278.83" x2="292.46" y2="278.83"/>
		<line id="line_5" class="line ie-marker" data-end-params="scale:0.5x0.5;flipped:off" style="marker-end: url(#arrowHeadFilledv3_c2NhbGU6MC41eDAuNTtmbGlwcGVkOm9mZjs=);" x1="242" y1="103.83" x2="297.46" y2="103.83"/>
		<line id="line_6" class="line ie-marker" data-end-params="scale:0.5x0.5;flipped:off" style="marker-end: url(#arrowHeadFilledv3_c2NhbGU6MC41eDAuNTtmbGlwcGVkOm9mZjs=);" x1="154.35" y1="278.83" x2="209.81" y2="278.83"/>
		<line id="line_7" class="line ie-marker" data-end-params="scale:0.5x0.5;flipped:off" style="marker-end: url(#arrowHeadFilledv3_c2NhbGU6MC41eDAuNTtmbGlwcGVkOm9mZjs=);" x1="76" y1="278.83" x2="131.46" y2="278.83"/>
		<line id="line_8" class="line ie-marker" data-start-params="scale:0.5x0.5;flipped:on" style="marker-start: url(#arrowHeadFilledv3_c2NhbGU6MC41eDAuNTtmbGlwcGVkOm9uOw==);" x1="79" y1="124.83" x2="134.46" y2="124.83"/>
		<line id="line_8_9" class="line ie-marker" data-start-params="scale:0.5x0.5;flipped:on" style="marker-start: url(#arrowHeadFilledv3_c2NhbGU6MC41eDAuNTtmbGlwcGVkOm9uOw==);" x1="159.35" y1="124.83" x2="214.81" y2="124.83"/>
		<line id="line_8_10" class="line ie-marker" data-start-params="scale:0.5x0.5;flipped:on" style="marker-start: url(#arrowHeadFilledv3_c2NhbGU6MC41eDAuNTtmbGlwcGVkOm9uOw==);" x1="242" y1="124.83" x2="297.46" y2="124.83"/>
		<line id="line_8_11" class="line ie-marker" data-start-params="scale:0.5x0.5;flipped:on" style="marker-start: url(#arrowHeadFilledv3_c2NhbGU6MC41eDAuNTtmbGlwcGVkOm9uOw==);" x1="237" y1="295.83" x2="292.46" y2="295.83"/>
		<line id="line_8_12" class="line ie-marker" data-start-params="scale:0.5x0.5;flipped:on" style="marker-start: url(#arrowHeadFilledv3_c2NhbGU6MC41eDAuNTtmbGlwcGVkOm9uOw==);" x1="154.35" y1="295.83" x2="209.81" y2="295.83"/>
		<line id="line_8_14" class="line ie-marker" data-start-params="scale:0.5x0.5;flipped:on" style="marker-start: url(#arrowHeadFilledv3_c2NhbGU6MC41eDAuNTtmbGlwcGVkOm9uOw==);" x1="74" y1="295.83" x2="129.46" y2="295.83"/>
	</g>
</svg>
