<svg xmlns="http://www.w3.org/2000/svg" xmlns:d="http://www.mathworks.com/blockgraphics" xmlns:xlink="http://www.w3.org/1999/xlink" version="1.1" id="svg" width="600" height="400" d:options="Foreground:PortStyled;Background:Transparent;StrokeScaling:PortStyled;StrokeScalingOnResize:NonScaling;LineExtension:On;Rotate:On;Resize:FitToBlock;Frame:Off;Clipping:None;PreAdjustStrokeWidth:Normalized;TextScalingOnResize:Constant;Geometric:Off;Port:Auto Majority;">
	<defs>
		<style>
			.font-size-default {
				font-size: 40px; stroke-width: 1px;
			}
					</style>
	</defs>
	<g id="part_3" title="part_0" ie-ports="left:acoustical-acoustical,top:,right:acoustical-acoustical,bottom:acoustical-acoustical">
		<g id="group">
			<g id="Cylinder">
				<path id="part_1" class="path" style="fill:#ffffff;" transform="matrix(-1,0,0,-1,661.8099975586,399.6899414062)" d:options="ClosedShapeFill:On;" d=" M 322.64,287.77 L 337.79,287.77 C 338.61,287.77 339.17,243.8 339.17,199.85 C 339.17,155.87 338.61,111.91 337.79,111.91 L 322.64,111.91 C 323.41,111.91 324.02,151.26 324.02,199.85 C 324.02,248.42 323.41,287.77 322.64,287.77 Z"/>
				<ellipse id="part_2" class="ellipse" transform="matrix(-1,0,0,-1,678.3400268556,399.6799926758)" d:options="ClosedShapeFill:On;" cx="339.17" cy="199.84" rx="1.38" ry="87.93"/>
			</g>
			<g id="Cylinder_3">
				<path id="part_1_1" class="path" style="fill:#ffffff;" transform="matrix(-1,0,0,-1,631.4299926758,399.6899414062)" d:options="ClosedShapeFill:On;" d=" M 307.45,287.77 L 322.6,287.77 C 323.42,287.77 323.98,243.8 323.98,199.85 C 323.98,155.87 323.42,111.91 322.6,111.91 L 307.45,111.91 C 308.22,111.91 308.83,151.26 308.83,199.85 C 308.83,248.42 308.22,287.77 307.45,287.77 Z"/>
			</g>
			<g id="Cylinder_3_5">
				<path id="part_1_1_4" class="path" style="fill:#ffffff;" transform="matrix(-1,0,0,-1,600.7698974611,399.7599487304)" d:options="ClosedShapeFill:On;" d=" M 292.12,287.81 L 307.28,287.81 C 308.09,287.81 308.65,243.84 308.65,199.88 C 308.65,155.91 308.09,111.94 307.28,111.94 L 292.12,111.94 C 292.9,111.94 293.52,151.28 293.52,199.88 C 293.52,248.42 292.9,287.81 292.12,287.81 Z"/>
			</g>
			<g id="Cylinder_3_7">
				<path id="part_1_1_6" class="path" style="fill:#ffffff;" transform="matrix(-1,0,0,-1,570.2298583986,399.6899414062)" d:options="ClosedShapeFill:On;" d=" M 276.85,287.77 L 292,287.77 C 292.82,287.77 293.38,243.8 293.38,199.85 C 293.38,155.87 292.82,111.91 292,111.91 L 276.85,111.91 C 277.61,111.91 278.22,151.26 278.22,199.85 C 278.22,248.42 277.61,287.77 276.85,287.77 Z"/>
			</g>
			<g id="Cylinder_3_5_9">
				<path id="part_1_1_4_8" class="path" style="fill:#ffffff;" transform="matrix(-1,0,0,-1,539.5828857422,399.7399291992)" d:options="ClosedShapeFill:On;" d=" M 261.52,287.81 L 276.68,287.81 C 277.49,287.81 278.05,243.84 278.05,199.88 C 278.05,155.91 277.49,111.94 276.68,111.94 L 261.52,111.94 C 262.3,111.94 262.91,151.28 262.91,199.88 C 262.91,248.42 262.3,287.81 261.52,287.81 Z"/>
			</g>
			<g id="Cylinder_12">
				<path id="part_1_10" class="path" style="fill:#ffffff;" transform="matrix(-1,0,0,-1,866.2399902345,400.3099365234)" d:options="ClosedShapeFill:On;" d=" M 386.3,288.08 L 472.14,288.08 C 476.82,288.08 479.94,244.12 479.94,200.17 C 479.94,156.19 476.82,112.22 472.14,112.22 L 386.3,112.22 C 390.6,112.22 394.1,151.57 394.1,200.17 C 394.1,248.73 390.6,288.08 386.3,288.08 Z"/>
				<ellipse id="part_2_11" class="ellipse" transform="matrix(-1,0,0,-1,959.9000244141,400.299987793)" d:options="ClosedShapeFill:On;" cx="479.95" cy="200.15" rx="7.8" ry="87.93"/>
			</g>
			<g id="Cylinder_12_15">
				<path id="part_1_10_13" class="path" style="fill:#ffffff;" transform="matrix(-1,0,0,-1,327.1499938966,399.6899108886)" d:options="ClosedShapeFill:On;" d=" M 116.75,287.77 L 202.59,287.77 C 207.27,287.77 210.4,243.8 210.4,199.86 C 210.4,155.87 207.27,111.91 202.59,111.91 L 116.75,111.91 C 121.05,111.91 124.56,151.26 124.56,199.86 C 124.56,248.42 121.05,287.77 116.75,287.77 Z"/>
				<ellipse id="part_2_11_14" class="ellipse" transform="matrix(-1,0,0,-1,420.8099975586,399.6799926758)" d:options="ClosedShapeFill:On;" cx="210.41" cy="199.84" rx="7.8" ry="87.93"/>
			</g>
			<text id="text" class="text font-size-default" x="345.15" y="182.97">
				<tspan dx="0" dy="36.11" x="345.15">...</tspan>
			</text>
			<text id="text_16" class="text font-size-default" x="224.78" y="182.97">
				<tspan dx="0" dy="36.11" x="224.78">...</tspan>
			</text>
		</g>
		<path id="path_107" class="path" d=" M 300,400 L 300,287.82"/>
		<path id="path" class="path" d=" M 0,200 L 116.75,200"/>
		<path id="path_127" class="path" d=" M 479.95,200.15 L 600,200"/>
	</g>
</svg>
