<svg xmlns="http://www.w3.org/2000/svg" xmlns:d="http://www.mathworks.com/blockgraphics" xmlns:xlink="http://www.w3.org/1999/xlink" version="1.1" id="svg" width="387" height="558" viewBox="0 0 387 558" d:options="Foreground:PortStyled;StrokeScaling:PortStyled;StrokeScalingOnResize:NonScaling;LineExtension:On;Rotate:On;Resize:FitToBlock;Frame:Off;Clipping:None;PreAdjustStrokeWidth:Normalized;Port:Auto Majority;">
	<title>
		Fig file converted by fig2lat	</title>
	<defs>
		<style>
			.sC {
				fill: #000000;
			fillrule: evenodd;
			stroke: #000000;
			stroke-width: 0.9;
			}
			.sB {
				fill: none;
			stroke: #000000;
			stroke-width: 0.9;
			}
			.sA {
				fill: none;
			stroke: #000000;
			stroke-width: 0.9;
			stroke-miterlimit: 20;
			}
			.sD {
				fill: none;
			stroke: #FFFFFF;
			stroke-width: 0.9;
			stroke-miterlimit: 20;
			}
					</style>
	</defs>
	<g id="part_1" title="part_0" ie-ports="left:acoustic-acoustic*acoustic-acoustic,top:,right:acoustic-acoustic*acoustic-acoustic,bottom:">
		<path id="path" class="path" d=" M 0,141.3 L 149.94,141.3 L 149.94,148.26 L 149.94,155.1 L 149.94,162 L 149.94,168.84"/>
		<path id="path_8" class="sB" d=" M 149.94,389.16 C 142.64,389.16 135.63,386.26 130.47,381.09 C 125.3,375.93 122.4,368.92 122.4,361.62 C 122.4,354.32 125.3,347.31 130.47,342.15 C 135.63,336.98 142.64,334.08 149.94,334.08"/>
		<path id="path_9" class="sB" d=" M 149.94,334.08 C 142.64,334.08 135.63,331.18 130.47,326.01 C 125.3,320.85 122.4,313.84 122.4,306.54 C 122.4,299.24 125.3,292.23 130.47,287.07 C 135.63,281.9 142.64,279 149.94,279"/>
		<path id="path_10" class="sB" d=" M 149.94,279 C 142.64,279 135.63,276.1 130.47,270.93 C 125.3,265.77 122.4,258.76 122.4,251.46 C 122.4,244.16 125.3,237.15 130.47,231.99 C 135.63,226.82 142.64,223.92 149.94,223.92"/>
		<path id="path_11" class="sB" d=" M 149.94,223.92 C 142.64,223.92 135.63,221.02 130.47,215.85 C 125.3,210.69 122.4,203.68 122.4,196.38 C 122.4,189.08 125.3,182.07 130.47,176.91 C 135.63,171.74 142.64,168.84 149.94,168.84"/>
		<path id="path_12" class="sB" d=" M 219.26,168.85 C 226.56,168.85 233.57,171.75 238.73,176.92 C 243.9,182.08 246.8,189.09 246.8,196.39 C 246.8,203.69 243.9,210.7 238.73,215.86 C 233.57,221.03 226.56,223.93 219.26,223.93"/>
		<path id="path_13" class="sB" d=" M 219.26,223.93 C 226.56,223.93 233.57,226.83 238.73,232 C 243.9,237.16 246.8,244.17 246.8,251.47 C 246.8,258.77 243.9,265.78 238.73,270.94 C 233.57,276.11 226.56,279.01 219.26,279.01"/>
		<path id="path_14" class="sB" d=" M 219.26,279.01 C 226.56,279.01 233.57,281.91 238.73,287.08 C 243.9,292.24 246.8,299.25 246.8,306.55 C 246.8,313.85 243.9,320.86 238.73,326.02 C 233.57,331.19 226.56,334.09 219.26,334.09"/>
		<path id="path_15" class="sB" d=" M 219.26,334.09 C 226.56,334.09 233.57,336.99 238.73,342.16 C 243.9,347.32 246.8,354.33 246.8,361.63 C 246.8,368.93 243.9,375.94 238.73,381.1 C 233.57,386.27 226.56,389.17 219.26,389.17"/>
		<ellipse id="ellipse" class="sC" cx="86.4" cy="173.7" rx="6.84" ry="6.96"/>
		<ellipse id="ellipse_16" class="sC" cx="280.8" cy="173.7" rx="6.84" ry="6.96"/>
		<path id="path_111" class="path" d:options="Port:R0;" d=" M 219.3,168.85 L 219.3,139.5 L 387,139.5"/>
		<path id="path_129" class="path" d:options="Port:L1;" d=" M 149.94,389.16 L 149.94,418.5 L 0,418.5"/>
		<path id="path_145" class="path" d=" M 219.26,389.17 L 219.26,418.5 L 387,418.5"/>
	</g>
</svg>
