<svg xmlns="http://www.w3.org/2000/svg" xmlns:d="http://www.mathworks.com/blockgraphics" xmlns:xlink="http://www.w3.org/1999/xlink" version="1.1" id="svg" width="234" height="342" d:options="Foreground:PortStyled;StrokeScaling:PortStyled;StrokeScalingOnResize:NonScaling;LineExtension:On;Rotate:On;Resize:FitToBlock;Frame:Off;Clipping:None;PreAdjustStrokeWidth:Normalized;Port:Auto Majority;">
	<title>
		Fig file converted by fig2lat	</title>
	<defs>
		<style>
			.sB {
				fill: none;
			stroke: #000000;
			stroke-width: 0.9;
			}
			.sC {
				fill: none;
			stroke: #000000;
			stroke-width: 0.9;
			stroke-miterlimit: 20;
			}
			.sA {
				fill: none;
			stroke: #000000;
			stroke-width: 0.9;
			stroke-miterlimit: 20;
			}
			.sD {
				fill: none;
			stroke: #FFFFFF;
			stroke-width: 0.9;
			stroke-miterlimit: 20;
			}
					</style>
	</defs>
	<g id="part_1" title="part_1" ie-ports="left:simulink*simulink,top:,right:simulink*simulink,bottom:">
		<g id="DCVoltageSource" d:options="Port:L0;">
			<ellipse id="ellipse_3" class="ellipse" transform="matrix(0,-1,1,0,31.4900054932,202.5)" cx="117" cy="85.5" rx="27.41" ry="27.41"/>
			<line id="line_17" class="line" transform="matrix(0,-1,1,0,19.1699981689,190.8300018311)" x1="98.57" y1="85.83" x2="111.43" y2="85.83"/>
			<line id="line_18" class="line" x1="98.57" y1="85.83" x2="111.43" y2="85.83"/>
			<line id="line_19" class="line" transform="matrix(0,-1,1,0,43.1100006104,214.7700042725)" x1="122.51" y1="85.83" x2="135.37" y2="85.83"/>
			<path id="line_24" class="path" transform="matrix(0,-1,1,0,-40.7299957276,130.2899856567)" d=" M 44.77,130.29 L 44.79,40.73"/>
			<path id="line_25" class="path" transform="matrix(0,-1,1,0,103.6999664307,274.7099952698)" d=" M 189.21,130.3 L 189.2,40.71"/>
		</g>
		<rect id="rect" class="rect" d:options="PreserveAspect:On;Port:L1;" x="82" y="221.44" width="70" height="70.13" rx="0" ry="0"/>
		<path id="path_73" class="path" d:options="Port:L1;" d=" M 0,256.5 L 82,256.5"/>
		<path id="path_241" class="path" d:options="Port:R1;" d=" M 234,256.5 L 152,256.5"/>
		<line id="line" class="line" style="stroke-dasharray: 1px, 2.5px;" x1="117" y1="112.91" x2="117" y2="221.44"/>
		<line id="line_260" class="line ie-marker" data-end-params="scale:2x2;flipped:off" style="marker-end: url(#triangle_c2NhbGU6MngyO2ZsaXBwZWQ6b2ZmOw==);" d:options="Port:R1;" x1="136.71" y1="256.49" x2="108.33" y2="256.5"/>
	</g>
</svg>
