<svg xmlns="http://www.w3.org/2000/svg" xmlns:d="http://www.mathworks.com/blockgraphics" xmlns:xlink="http://www.w3.org/1999/xlink" version="1.1" id="svg" width="600" height="400" d:options="Foreground:PortStyled;Background:Transparent;StrokeScaling:PortStyled;StrokeScalingOnResize:NonScaling;LineExtension:On;Rotate:On;Resize:FitToBlock;Frame:Off;Clipping:None;PreAdjustStrokeWidth:Normalized;TextScalingOnResize:Constant;Geometric:Off;Port:Auto Majority;">
	<g id="part_3" title="part_0" ie-ports="left:acoustical-acoustical,top:,right:acoustical-acoustical,bottom:">
		<g id="Cylinder">
			<path id="part_1" class="path" style="fill:#ffffff;" transform="matrix(-1,0,0,-1,529.0973510742,402.4691162109)" d:options="ClosedShapeFill:On;" d=" M 142.7,284.23 L 366.06,284.23 C 378.25,284.23 386.39,242.73 386.39,201.23 C 386.39,159.73 378.25,118.23 366.06,118.23 L 142.7,118.23 C 153.92,118.23 163,155.38 163,201.23 C 163,247.1 153.92,284.23 142.7,284.23 Z"/>
			<ellipse id="part_2" class="ellipse" transform="matrix(-1,0,0,-1,772.7900390625,402.4599914551)" d:options="ClosedShapeFill:On;" cx="386.39" cy="201.23" rx="20.3" ry="83"/>
		</g>
		<rect id="rect" class="rect" d:options="ClosedShapeFill:On;" x="372.7" y="1.23" width="13.69" height="117" rx="0" ry="0"/>
		<rect id="rect_1" class="rect" d:options="ClosedShapeFill:On;" x="372.71" y="284.23" width="13.69" height="117" rx="0" ry="0"/>
		<path id="path" class="path" d=" M 424.7,162.06 Q 436.7,181.73 436.7,201.23 Q 436.7,220.73 424.7,240.06"/>
		<path id="path_120" class="path" d=" M 448.7,147.06 Q 461.7,173.48 461.7,201.23 Q 461.7,228.98 448.7,258.06"/>
		<path id="path_165" class="path" d=" M 472.7,131.06 Q 485.7,165.98 485.7,201.23 Q 485.7,236.48 472.7,272.06"/>
		<path id="path_35" class="path" d=" M 0,200 L 142.71,201.24"/>
		<path id="path_112" class="path" d=" M 386.4,201.23 L 600,200"/>
	</g>
</svg>
