<svg xmlns="http://www.w3.org/2000/svg" xmlns:d="http://www.mathworks.com/blockgraphics" xmlns:xlink="http://www.w3.org/1999/xlink" version="1.1" id="svg" width="600" height="600" d:options="Foreground:PortStyled;Background:Transparent;StrokeScaling:PortStyled;StrokeScalingOnResize:NonScaling;LineExtension:On;Rotate:undefined;Resize:FitToBlock;Frame:Off;Clipping:None;PreAdjustStrokeWidth:Normalized;TextScalingOnResize:Constant;Geometric:Off;Port:Auto Majority;">
	<g id="part" title="part_1" ie-ports="left:simulink,top:,right:simulink,bottom:">
		<ellipse id="ellipse_2" class="ellipse" d:options="ClosedShapeFill:On;" cx="307" cy="295" rx="100" ry="100"/>
		<path id="path_569" class="path" style="stroke-dasharray: 1px, 2.5px;" d=" M 182,295 Q 187.37,237.87 218.62,206.62 Q 249.87,175.37 307,170"/>
		<path id="path_571" class="path" style="stroke-dasharray: 1px, 2.5px;" d=" M 432,295 Q 426.63,237.87 395.38,206.62 Q 364.13,175.37 307,170"/>
		<path id="path_572" class="path" style="stroke-dasharray: 1px, 2.5px;" transform="matrix(-1,0,0,-1,738.9828491211,714.9877319336)" d=" M 306.99,419.99 Q 312.36,362.86 343.61,331.61 Q 374.86,300.36 431.99,294.99"/>
		<path id="path_573" class="path" style="stroke-dasharray: 1px, 2.5px;" transform="matrix(-1,0,0,-1,488.9798583984,714.9603881837)" d=" M 306.99,419.97 Q 301.62,362.84 270.37,331.59 Q 239.12,300.34 181.99,294.97"/>
		<path id="path_574" class="path" style="stroke-dasharray: 1px, 2.5px;" d=" M 130.99,297.43 Q 138.51,217.45 182.26,173.7 Q 226.01,129.95 305.99,122.43"/>
		<path id="path_575" class="path" style="stroke-dasharray: 1px, 2.5px;" d=" M 480.99,297.43 Q 473.47,217.45 429.72,173.7 Q 385.97,129.95 305.99,122.43"/>
		<path id="path_576" class="path" style="stroke-dasharray: 1px, 2.5px;" transform="matrix(-1,0,0,-1,786.9696655272,769.8541870119)" d=" M 305.98,472.43 Q 313.5,392.45 357.25,348.7 Q 401,304.95 480.98,297.43"/>
		<path id="path_577" class="path" style="stroke-dasharray: 1px, 2.5px;" transform="matrix(-1,0,0,-1,436.9844055176,769.8162231446)" d=" M 305.99,472.4 Q 298.47,392.42 254.72,348.67 Q 210.97,304.92 130.99,297.4"/>
		<path id="path_578" class="path" style="stroke-dasharray: 1px, 2.5px;" d=" M 157,295 Q 163.45,226.45 200.95,188.95 Q 238.45,151.45 307,145"/>
		<path id="path_579" class="path" style="stroke-dasharray: 1px, 2.5px;" d=" M 457,295 Q 450.55,226.45 413.05,188.95 Q 375.55,151.45 307,145"/>
		<path id="path_580" class="path" style="stroke-dasharray: 1px, 2.5px;" transform="matrix(-1,0,0,-1,763.9882202147,740.0530395509)" d=" M 306.99,445.04 Q 313.44,376.49 350.94,338.99 Q 388.44,301.49 456.99,295.04"/>
		<path id="path_581" class="path" style="stroke-dasharray: 1px, 2.5px;" transform="matrix(-1,0,0,-1,464.0122375489,739.9868774414)" d=" M 307.01,444.99 Q 300.56,376.44 263.06,338.94 Q 225.56,301.44 157.01,294.99"/>
		<path id="path" class="path" d=" M 0,300 L 207,300"/>
		<path id="path_611" class="path" d=" M 600,300 L 407,300"/>
	</g>
</svg>
