<svg xmlns="http://www.w3.org/2000/svg" xmlns:d="http://www.mathworks.com/blockgraphics" xmlns:xlink="http://www.w3.org/1999/xlink" version="1.1" id="svg" width="400" height="400" d:options="Foreground:PortStyled;Background:Transparent;PreserveAspect:On;StrokeScaling:PortStyled;StrokeScalingOnResize:NonScaling;LineExtension:On;Rotate:undefined;Resize:FitToBlock;Frame:Off;PreAdjustStrokeWidth:Normalized;TextScalingOnResize:Constant;Geometric:Off;Port:Auto Majority;">
	<g id="part" title="part_0" ie-ports="left:acoustical-acoustical,top:,right:acoustical-acoustical,bottom:">
		<ellipse id="ellipse" class="ellipse" d:options="ClosedShapeFill:On;" cx="200" cy="200" rx="100" ry="100"/>
		<g id="group">
			<path id="path" class="path" d=" M 240,80 Q 280,80 300,100 Q 320,120 320,160"/>
			<path id="path_504" class="path" d=" M 260,60 Q 300,60 320,80 Q 340,100 340,140"/>
			<path id="path_505" class="path" d=" M 280,40 Q 320,40 340,60 Q 360,80 360,120"/>
		</g>
		<g id="group_509">
			<path id="path_506" class="path" transform="matrix(0,1,-1,0,559.9999694824,0.0000305176)" d=" M 240,240 Q 280,240 300,260 Q 320,280 320,320"/>
			<path id="path_504_507" class="path" transform="matrix(0,1,-1,0,599.9999694824,0.0000305176)" d=" M 260,260 Q 300,260 320,280 Q 340,300 340,340"/>
			<path id="path_505_508" class="path" transform="matrix(0,1,-1,0,639.9999694824,0.0000305176)" d=" M 280,280 Q 320,280 340,300 Q 360,320 360,360"/>
		</g>
		<g id="group_509_513">
			<path id="path_506_510" class="path" transform="matrix(-0.9998476952,0.0174524064,-0.0174524064,-0.9998476952,244.1635181212,557.1865087842)" d=" M 79.66,239.65 Q 119.66,239.65 139.66,259.65 Q 159.66,279.65 159.66,319.65"/>
			<path id="path_504_507_511" class="path" transform="matrix(-0.9998476952,0.0174524064,-0.0174524064,-0.9998476952,205.231979158,598.2018573223)" d=" M 60,259.99 Q 100,259.99 120,279.99 Q 140,299.99 140,339.99"/>
			<path id="path_505_508_512" class="path" transform="matrix(-0.9998476952,0.0174524064,-0.0174524064,-0.9998476952,166.2804379782,639.2174414519)" d=" M 40.35,280.33 Q 80.35,280.33 100.35,300.33 Q 120.35,320.33 120.35,360.33"/>
		</g>
		<g id="group_509_513_517">
			<path id="path_506_510_514" class="path" transform="matrix(-0.0174524064,-0.9998476952,0.9998476952,-0.0174524064,2.8027946947,242.079951014)" d=" M 80.37,79.66 Q 120.37,79.66 140.37,99.66 Q 160.37,119.66 160.37,159.66"/>
			<path id="path_504_507_511_515" class="path" transform="matrix(-0.0174524064,-0.9998476952,0.9998476952,-0.0174524064,1.7694786918,201.7704190554)" d=" M 60.03,60 Q 100.03,60 120.03,80 Q 140.03,100 140.03,140"/>
			<path id="path_505_508_512_516" class="path" transform="matrix(-0.0174524064,-0.9998476952,0.9998476952,-0.0174524064,0.7257596856,161.431066457)" d=" M 39.69,40.35 Q 79.69,40.35 99.69,60.35 Q 119.69,80.35 119.69,120.35"/>
		</g>
	</g>
</svg>
